<svg xmlns="http://www.w3.org/2000/svg" width="19.638" height="19.638" viewBox="0 0 19.638 19.638">
  <path id="_001-check-mark" data-name="001-check-mark" d="M14.16,6.7a.767.767,0,0,1,0,1.085L9.013,12.935a.767.767,0,0,1-1.085,0l-2.45-2.45A.767.767,0,0,1,6.563,9.4l1.907,1.907,4.6-4.6A.767.767,0,0,1,14.16,6.7Zm5.479,3.116A9.819,9.819,0,1,1,9.819,0,9.814,9.814,0,0,1,19.638,9.819Zm-1.534,0A8.285,8.285,0,1,0,9.819,18.1,8.28,8.28,0,0,0,18.1,9.819Zm0,0" transform="translate(0 0)" fill="#2cc24f"/>
</svg>
